


<svg width="95" height="35" viewBox="0 0 95 35" fill="none" xmlns="http://www.w3.org/2000/svg">
<path d="M0.5 17.5C0.5 8.11116 8.11116 0.5 17.5 0.5H77.5C86.8888 0.5 94.5 8.11116 94.5 17.5C94.5 26.8888 86.8888 34.5 77.5 34.5H17.5C8.11116 34.5 0.5 26.8888 0.5 17.5Z" fill="white"/>
<path d="M0.5 17.5C0.5 8.11116 8.11116 0.5 17.5 0.5H77.5C86.8888 0.5 94.5 8.11116 94.5 17.5C94.5 26.8888 86.8888 34.5 77.5 34.5H17.5C8.11116 34.5 0.5 26.8888 0.5 17.5Z" stroke="white"/>
<path d="M28.3828 20.125C28.3828 19.8594 28.3411 19.625 28.2578 19.4219C28.1797 19.2135 28.0391 19.026 27.8359 18.8594C27.638 18.6927 27.362 18.5339 27.0078 18.3828C26.6589 18.2318 26.2161 18.0781 25.6797 17.9219C25.1172 17.7552 24.6094 17.5703 24.1562 17.3672C23.7031 17.1589 23.3151 16.9219 22.9922 16.6562C22.6693 16.3906 22.4219 16.0859 22.25 15.7422C22.0781 15.3984 21.9922 15.0052 21.9922 14.5625C21.9922 14.1198 22.0833 13.7109 22.2656 13.3359C22.4479 12.9609 22.7083 12.6354 23.0469 12.3594C23.3906 12.0781 23.7995 11.8594 24.2734 11.7031C24.7474 11.5469 25.276 11.4688 25.8594 11.4688C26.7135 11.4688 27.4375 11.6328 28.0312 11.9609C28.6302 12.2839 29.0859 12.7083 29.3984 13.2344C29.7109 13.7552 29.8672 14.3125 29.8672 14.9062H28.3672C28.3672 14.4792 28.276 14.1016 28.0938 13.7734C27.9115 13.4401 27.6354 13.1797 27.2656 12.9922C26.8958 12.7995 26.4271 12.7031 25.8594 12.7031C25.3229 12.7031 24.8802 12.7839 24.5312 12.9453C24.1823 13.1068 23.9219 13.3255 23.75 13.6016C23.5833 13.8776 23.5 14.1927 23.5 14.5469C23.5 14.7865 23.5495 15.0052 23.6484 15.2031C23.7526 15.3958 23.9115 15.5755 24.125 15.7422C24.3438 15.9089 24.6198 16.0625 24.9531 16.2031C25.2917 16.3438 25.6953 16.4792 26.1641 16.6094C26.8099 16.7917 27.3672 16.9948 27.8359 17.2188C28.3047 17.4427 28.6901 17.6953 28.9922 17.9766C29.2995 18.2526 29.526 18.5677 29.6719 18.9219C29.8229 19.2708 29.8984 19.6667 29.8984 20.1094C29.8984 20.5729 29.8047 20.9922 29.6172 21.3672C29.4297 21.7422 29.1615 22.0625 28.8125 22.3281C28.4635 22.5938 28.0443 22.7995 27.5547 22.9453C27.0703 23.0859 26.5286 23.1562 25.9297 23.1562C25.4036 23.1562 24.8854 23.0833 24.375 22.9375C23.8698 22.7917 23.4089 22.5729 22.9922 22.2812C22.5807 21.9896 22.25 21.6302 22 21.2031C21.7552 20.7708 21.6328 20.2708 21.6328 19.7031H23.1328C23.1328 20.0938 23.2083 20.4297 23.3594 20.7109C23.5104 20.987 23.7161 21.2161 23.9766 21.3984C24.2422 21.5807 24.5417 21.7161 24.875 21.8047C25.2135 21.888 25.5651 21.9297 25.9297 21.9297C26.4557 21.9297 26.901 21.8568 27.2656 21.7109C27.6302 21.5651 27.9062 21.3568 28.0938 21.0859C28.2865 20.8151 28.3828 20.4948 28.3828 20.125ZM33.1719 14.5469V23H31.7188V14.5469H33.1719ZM31.6094 12.3047C31.6094 12.0703 31.6797 11.8724 31.8203 11.7109C31.9661 11.5495 32.1797 11.4688 32.4609 11.4688C32.737 11.4688 32.9479 11.5495 33.0938 11.7109C33.2448 11.8724 33.3203 12.0703 33.3203 12.3047C33.3203 12.5286 33.2448 12.7214 33.0938 12.8828C32.9479 13.0391 32.737 13.1172 32.4609 13.1172C32.1797 13.1172 31.9661 13.0391 31.8203 12.8828C31.6797 12.7214 31.6094 12.5286 31.6094 12.3047ZM40.9688 14.5469H42.2812V22.8203C42.2812 23.5651 42.1302 24.2005 41.8281 24.7266C41.526 25.2526 41.1042 25.651 40.5625 25.9219C40.026 26.1979 39.4062 26.3359 38.7031 26.3359C38.4115 26.3359 38.0677 26.2891 37.6719 26.1953C37.2812 26.1068 36.8958 25.9531 36.5156 25.7344C36.1406 25.5208 35.8255 25.2318 35.5703 24.8672L36.3281 24.0078C36.6823 24.4349 37.0521 24.7318 37.4375 24.8984C37.8281 25.0651 38.2135 25.1484 38.5938 25.1484C39.0521 25.1484 39.4479 25.0625 39.7812 24.8906C40.1146 24.7188 40.3724 24.4635 40.5547 24.125C40.7422 23.7917 40.8359 23.3802 40.8359 22.8906V16.4062L40.9688 14.5469ZM35.1484 18.8672V18.7031C35.1484 18.0573 35.224 17.4714 35.375 16.9453C35.5312 16.4141 35.7526 15.9583 36.0391 15.5781C36.3307 15.1979 36.6823 14.9062 37.0938 14.7031C37.5052 14.4948 37.9688 14.3906 38.4844 14.3906C39.0156 14.3906 39.4792 14.4844 39.875 14.6719C40.276 14.8542 40.6146 15.1224 40.8906 15.4766C41.1719 15.8255 41.3932 16.2474 41.5547 16.7422C41.7161 17.237 41.8281 17.7969 41.8906 18.4219V19.1406C41.8333 19.7604 41.7214 20.3177 41.5547 20.8125C41.3932 21.3073 41.1719 21.7292 40.8906 22.0781C40.6146 22.4271 40.276 22.6953 39.875 22.8828C39.474 23.0651 39.0052 23.1562 38.4688 23.1562C37.9635 23.1562 37.5052 23.0495 37.0938 22.8359C36.6875 22.6224 36.3385 22.3229 36.0469 21.9375C35.7552 21.5521 35.5312 21.099 35.375 20.5781C35.224 20.0521 35.1484 19.4818 35.1484 18.8672ZM36.5938 18.7031V18.8672C36.5938 19.2891 36.6354 19.6849 36.7188 20.0547C36.8073 20.4245 36.9401 20.75 37.1172 21.0312C37.2995 21.3125 37.5312 21.5339 37.8125 21.6953C38.0938 21.8516 38.4297 21.9297 38.8203 21.9297C39.2995 21.9297 39.6953 21.8281 40.0078 21.625C40.3203 21.4219 40.5677 21.1536 40.75 20.8203C40.9375 20.487 41.0833 20.125 41.1875 19.7344V17.8516C41.1302 17.5651 41.0417 17.2891 40.9219 17.0234C40.8073 16.7526 40.6562 16.513 40.4688 16.3047C40.2865 16.0911 40.0599 15.9219 39.7891 15.7969C39.5182 15.6719 39.2005 15.6094 38.8359 15.6094C38.4401 15.6094 38.099 15.6927 37.8125 15.8594C37.5312 16.0208 37.2995 16.2448 37.1172 16.5312C36.9401 16.8125 36.8073 17.1406 36.7188 17.5156C36.6354 17.8854 36.5938 18.2812 36.5938 18.7031ZM45.9219 16.3516V23H44.4766V14.5469H45.8438L45.9219 16.3516ZM45.5781 18.4531L44.9766 18.4297C44.9818 17.8516 45.0677 17.3177 45.2344 16.8281C45.401 16.3333 45.6354 15.9036 45.9375 15.5391C46.2396 15.1745 46.599 14.8932 47.0156 14.6953C47.4375 14.4922 47.9036 14.3906 48.4141 14.3906C48.8307 14.3906 49.2057 14.4479 49.5391 14.5625C49.8724 14.6719 50.1562 14.849 50.3906 15.0938C50.6302 15.3385 50.8125 15.6562 50.9375 16.0469C51.0625 16.4323 51.125 16.9036 51.125 17.4609V23H49.6719V17.4453C49.6719 17.0026 49.6068 16.6484 49.4766 16.3828C49.3464 16.112 49.1562 15.9167 48.9062 15.7969C48.6562 15.6719 48.349 15.6094 47.9844 15.6094C47.625 15.6094 47.2969 15.6849 47 15.8359C46.7083 15.987 46.4557 16.1953 46.2422 16.4609C46.0339 16.7266 45.8698 17.0312 45.75 17.375C45.6354 17.7135 45.5781 18.0729 45.5781 18.4531ZM62.4609 21.0469V14.5469H63.9141V23H62.5312L62.4609 21.0469ZM62.7344 19.2656L63.3359 19.25C63.3359 19.8125 63.276 20.3333 63.1562 20.8125C63.0417 21.2865 62.8542 21.6979 62.5938 22.0469C62.3333 22.3958 61.9922 22.6693 61.5703 22.8672C61.1484 23.0599 60.6354 23.1562 60.0312 23.1562C59.6198 23.1562 59.2422 23.0964 58.8984 22.9766C58.5599 22.8568 58.2682 22.6719 58.0234 22.4219C57.7786 22.1719 57.5885 21.8464 57.4531 21.4453C57.3229 21.0443 57.2578 20.5625 57.2578 20V14.5469H58.7031V20.0156C58.7031 20.3958 58.7448 20.7109 58.8281 20.9609C58.9167 21.2057 59.0339 21.401 59.1797 21.5469C59.3307 21.6875 59.4974 21.7865 59.6797 21.8438C59.8672 21.901 60.0599 21.9297 60.2578 21.9297C60.8724 21.9297 61.3594 21.8125 61.7188 21.5781C62.0781 21.3385 62.3359 21.0182 62.4922 20.6172C62.6536 20.2109 62.7344 19.7604 62.7344 19.2656ZM67.5625 16.1719V26.25H66.1094V14.5469H67.4375L67.5625 16.1719ZM73.2578 18.7031V18.8672C73.2578 19.4818 73.1849 20.0521 73.0391 20.5781C72.8932 21.099 72.6797 21.5521 72.3984 21.9375C72.1224 22.3229 71.7812 22.6224 71.375 22.8359C70.9688 23.0495 70.5026 23.1562 69.9766 23.1562C69.4401 23.1562 68.9661 23.0677 68.5547 22.8906C68.1432 22.7135 67.7943 22.4557 67.5078 22.1172C67.2214 21.7786 66.9922 21.3724 66.8203 20.8984C66.6536 20.4245 66.5391 19.8906 66.4766 19.2969V18.4219C66.5391 17.7969 66.6562 17.237 66.8281 16.7422C67 16.2474 67.2266 15.8255 67.5078 15.4766C67.7943 15.1224 68.1406 14.8542 68.5469 14.6719C68.9531 14.4844 69.4219 14.3906 69.9531 14.3906C70.4844 14.3906 70.9557 14.4948 71.3672 14.7031C71.7786 14.9062 72.125 15.1979 72.4062 15.5781C72.6875 15.9583 72.8984 16.4141 73.0391 16.9453C73.1849 17.4714 73.2578 18.0573 73.2578 18.7031ZM71.8047 18.8672V18.7031C71.8047 18.2812 71.7604 17.8854 71.6719 17.5156C71.5833 17.1406 71.4453 16.8125 71.2578 16.5312C71.0755 16.2448 70.8411 16.0208 70.5547 15.8594C70.2682 15.6927 69.9271 15.6094 69.5312 15.6094C69.1667 15.6094 68.849 15.6719 68.5781 15.7969C68.3125 15.9219 68.0859 16.0911 67.8984 16.3047C67.7109 16.513 67.5573 16.7526 67.4375 17.0234C67.3229 17.2891 67.237 17.5651 67.1797 17.8516V19.875C67.2839 20.2396 67.4297 20.5833 67.6172 20.9062C67.8047 21.224 68.0547 21.4818 68.3672 21.6797C68.6797 21.8724 69.0729 21.9688 69.5469 21.9688C69.9375 21.9688 70.2734 21.888 70.5547 21.7266C70.8411 21.5599 71.0755 21.3333 71.2578 21.0469C71.4453 20.7604 71.5833 20.4323 71.6719 20.0625C71.7604 19.6875 71.8047 19.2891 71.8047 18.8672Z" fill="#121214"/>
</svg>
